<svg viewBox="180 0 280 320" role="img" aria-label="Paper Linter" xmlns="http://www.w3.org/2000/svg">
  <rect width="280" height="320" x="180" fill="#0a0c11" />
  <g transform="translate(12,18)">
    <path fill="none" stroke="#edeff1" stroke-width="14" stroke-linecap="round" stroke-linejoin="round" d="M 222,134 V 42 C 222,22 238,6 258,6 h 118 l 70,70 v 198 c 0,20 -16,36 -36,36 H 258 c -20,0 -36,-16 -36,-36" />
    <path fill="none" stroke="#edeff1" stroke-width="14" stroke-linecap="round" stroke-linejoin="round" d="m 376,7 v 59 c 0,11 9,20 20,20 h 49" />
    <path fill="#72D5C8" d="m 275,87 -99,112 h 73 L 196,300 316,167 h -78 z" />
    <path fill="none" stroke="#a5a8ad" stroke-width="6" stroke-linecap="round" stroke-linejoin="round" opacity=".95" d="m 294,121 h 54" />
    <path fill="none" stroke="#a5a8ad" stroke-width="6" stroke-linecap="round" stroke-linejoin="round" opacity=".95" d="m 367,121 h 14" />
    <path fill="none" stroke="#a5a8ad" stroke-width="6" stroke-linecap="round" stroke-linejoin="round" opacity=".95" d="m 311,163 h 47" />
    <path fill="none" stroke="#a5a8ad" stroke-width="6" stroke-linecap="round" stroke-linejoin="round" opacity=".95" d="m 377,163 h 17" />
    <path fill="none" stroke="#a5a8ad" stroke-width="6" stroke-linecap="round" stroke-linejoin="round" opacity=".95" d="m 290,203 h 81" />
    <path fill="none" stroke="#a5a8ad" stroke-width="6" stroke-linecap="round" stroke-linejoin="round" opacity=".95" d="m 394,203 h 18" />
    <path fill="none" stroke="#a5a8ad" stroke-width="6" stroke-linecap="round" stroke-linejoin="round" opacity=".95" d="m 247,249 h 12" />
    <path fill="none" stroke="#a5a8ad" stroke-width="6" stroke-linecap="round" stroke-linejoin="round" opacity=".95" d="m 289,249 h 87" />
  </g>
</svg>
