<?xml version="1.0" encoding="UTF-8" standalone="no"?>
<svg
   viewBox="0 0 1494 340"
   role="img"
   aria-labelledby="title desc"
   version="1.1"
   id="svg48"
   sodipodi:docname="horizontal_logo.mint.svg"
   xmlns:inkscape="http://www.inkscape.org/namespaces/inkscape"
   xmlns:sodipodi="http://sodipodi.sourceforge.net/DTD/sodipodi-0.dtd"
   xmlns="http://www.w3.org/2000/svg"
   xmlns:svg="http://www.w3.org/2000/svg">
  <sodipodi:namedview
     id="namedview50"
     pagecolor="#ffffff"
     bordercolor="#000000"
     borderopacity="0.25"
     inkscape:showpageshadow="2"
     inkscape:pageopacity="0.0"
     inkscape:pagecheckerboard="0"
     inkscape:deskcolor="#d1d1d1" />
  <title
     id="title">paper-linter logo</title>
  <desc
     id="desc">A fast document icon with a lime lightning bolt and the word paper-linter.</desc>
  <defs
     id="defs6">
    <style
       id="style4">      .paper-white { fill: none; stroke: #475569; stroke-width: 14; stroke-linecap: round; stroke-linejoin: round; }
      .paper-grey { fill: none; stroke: #94a3b8; stroke-width: 6; stroke-linecap: round; stroke-linejoin: round; opacity: .95; }
      .bolt { fill: #72D5C8; }
      .wordmark {
        font-family: SFMono-Regular, Menlo, Consolas, &quot;Liberation Mono&quot;, monospace;
        font-size: 118px;
        font-weight: 600;
        letter-spacing: 0;
        dominant-baseline: middle;
      }
      .word-paper { fill: #475569; }
      .word-linter { fill: #72D5C8; }
      @media (prefers-color-scheme: dark) {
        .paper-white { stroke: #edeff1; }
        .paper-grey { stroke: #a5a8ad; }
        .word-paper { fill: #edeff1; }
      }
    </style>
  </defs>
  <g
     transform="translate(12,18)"
     id="g38">
    <path
       class="paper-grey"
       d="M 0,134 H 64"
       id="path8" />
    <path
       class="paper-grey"
       d="m 58,182 h 91"
       id="path10" />
    <path
       class="paper-grey"
       d="M 10,228 H 135"
       id="path12" />
    <path
       class="paper-grey"
       d="m 72,276 h 75"
       id="path14" />
    <path
       class="paper-white"
       d="M 222,134 V 42 C 222,22 238,6 258,6 h 118 l 70,70 v 198 c 0,20 -16,36 -36,36 H 258 c -20,0 -36,-16 -36,-36"
       id="path16" />
    <path
       class="paper-white"
       d="m 376,7 v 59 c 0,11 9,20 20,20 h 49"
       id="path18" />
    <path
       class="bolt"
       d="m 275,87 -99,112 h 73 L 196,300 316,167 h -78 z"
       id="path20" />
    <path
       class="paper-grey"
       d="m 294,121 h 54"
       id="path22" />
    <path
       class="paper-grey"
       d="m 367,121 h 14"
       id="path24" />
    <path
       class="paper-grey"
       d="m 311,163 h 47"
       id="path26" />
    <path
       class="paper-grey"
       d="m 377,163 h 17"
       id="path28" />
    <path
       class="paper-grey"
       d="m 290,203 h 81"
       id="path30" />
    <path
       class="paper-grey"
       d="m 394,203 h 18"
       id="path32" />
    <path
       class="paper-grey"
       d="m 247,249 h 12"
       id="path34" />
    <path
       class="paper-grey"
       d="m 289,249 h 87"
       id="path36" />
  </g>
  <g
     class="wordmark"
     transform="translate(555,180)"
     id="g46">
    <g
       aria-label="paper-linter."
       id="text44">
      <path
         d="M 25.466797,23.162109 V 56.810547 H 8.6425781 V -32.265625 H 25.466797 v 9.679688 q 2.65039,-5.588868 6.97168,-8.41211 4.321289,-2.823242 10.140625,-2.823242 11.0625,0 17.169921,8.873047 6.107422,8.873047 6.107422,25.00585919 0,16.36328081 -6.222656,25.12109381 -6.165039,8.757812 -17.630859,8.757812 -5.185547,0 -9.333985,-2.65039 -4.09082,-2.708008 -7.202148,-8.124024 z M 48.974609,-0.05761719 q 0,-9.33398441 -3.111328,-14.63476581 -3.111328,-5.300781 -8.584961,-5.300781 -5.473633,0 -8.642578,5.300781 -3.168945,5.3007814 -3.168945,14.63476581 0,9.33398439 3.168945,14.63476519 3.168945,5.300782 8.642578,5.300782 5.473633,0 8.584961,-5.300782 3.111328,-5.3007808 3.111328,-14.63476519 z"
         class="word-paper"
         id="path52" />
      <path
         d="m 111.37402,1.9589844 q -9.44922,0 -13.194333,2.4199218 -3.745117,2.4199219 -3.745117,8.2968748 0,4.378906 2.592774,6.97168 2.592773,2.592773 7.029296,2.592773 6.68359,0 10.37109,-5.012695 3.6875,-5.070312 3.6875,-14.1162109 V 1.9589844 Z m 23.50782,-6.5107422 V 32.265625 h -16.76661 v -7.202148 q -3.05371,4.263671 -7.83593,6.568359 -4.78223,2.304687 -10.543948,2.304687 -11.004883,0 -17.169922,-5.819336 -6.107422,-5.819335 -6.107422,-16.248046 0,-11.29296913 7.317383,-16.6513676 7.317382,-5.4160154 22.643559,-5.4160154 h 11.69628 v -2.823242 q 0,-4.090821 -2.99609,-6.165039 -2.93848,-2.131836 -8.70019,-2.131836 -6.04981,0 -11.753911,1.555664 -5.646484,1.498047 -11.811523,4.839843 v -14.404296 q 5.588867,-2.304688 11.350586,-3.399414 5.761718,-1.094727 12.214848,-1.094727 15.72949,0 22.06738,6.395508 6.39551,6.395508 6.39551,22.8740232 z"
         class="word-paper"
         id="path54" />
      <path
         d="m 167.55078,23.162109 v 33.648438 h -16.82422 v -89.076172 h 16.82422 v 9.679688 q 2.65039,-5.588868 6.97168,-8.41211 4.32129,-2.823242 10.14063,-2.823242 11.0625,0 17.16992,8.873047 6.10742,8.873047 6.10742,25.00585919 0,16.36328081 -6.22266,25.12109381 -6.16504,8.757812 -17.63086,8.757812 -5.18554,0 -9.33398,-2.65039 -4.09082,-2.708008 -7.20215,-8.124024 z m 23.50781,-23.21972619 q 0,-9.33398441 -3.11132,-14.63476581 -3.11133,-5.300781 -8.58497,-5.300781 -5.47363,0 -8.64257,5.300781 -3.16895,5.3007814 -3.16895,14.63476581 0,9.33398439 3.16895,14.63476519 3.16894,5.300782 8.64257,5.300782 5.47364,0 8.58497,-5.300782 3.11132,-5.3007808 3.11132,-14.63476519 z"
         class="word-paper"
         id="path56" />
      <path
         d="m 276.62012,29.09668 q -5.87696,2.419922 -11.98438,3.629882 -6.10742,1.209961 -12.90625,1.209961 -16.19043,0 -24.77539,-8.642578 -8.52734,-8.700195 -8.52734,-25.00585906 0,-15.78710894 8.23926,-24.94824194 8.23925,-9.161133 22.4707,-9.161133 14.34668,0 22.24023,8.527344 7.95117,8.469726 7.95117,23.9111325 v 6.8564453 h -43.73144 q 0.0576,7.6054692 4.49414,11.3505862 4.43652,3.745117 13.25195,3.745117 5.81934,0 11.46582,-1.670899 5.64649,-1.670898 11.81153,-5.300781 z M 262.33105,-7.2021484 q -0.11523,-6.6835936 -3.45703,-10.0830076 -3.28418,-3.457031 -9.7373,-3.457031 -5.81934,0 -9.27637,3.572265 -3.45703,3.514649 -4.09082,10.0253908 z"
         class="word-paper"
         id="path58" />
      <path
         d="m 350.48535,-14.461914 q -2.76562,-2.535156 -6.51074,-3.802734 -3.6875,-1.267579 -8.12402,-1.267579 -5.3584,0 -9.39161,1.901368 -3.97558,1.84375 -6.16503,5.416015 -1.38282,2.189453 -1.95899,5.3007815 -0.51855,3.1113281 -0.51855,9.4492188 V 32.265625 h -16.88184 v -64.53125 h 16.88184 v 10.025391 q 2.47754,-5.53125 7.60546,-8.527344 5.12793,-3.053711 11.98438,-3.053711 3.45703,0 6.74121,0.864258 3.3418,0.80664 6.33789,2.419922 z"
         class="word-paper"
         id="path60" />
      <path
         d="m 361.08691,-9.4492188 h 61.07422 V 6.0498047 h -61.07422 z"
         class="word-paper"
         id="path62" />
      <path
         d="M 448.5498,5.3583984 V -44.422852 h -17.1123 v -12.963867 h 33.99414 V 5.3583984 q 0,7.6054686 2.36231,10.7744136 2.3623,3.168946 8.00878,3.168946 h 13.48243 v 12.963867 h -18.20704 q -12.04199,0 -17.28515,-6.222656 -5.24317,-6.222657 -5.24317,-20.6845706 z"
         style="fill:#72d5c8"
         id="path64" />
      <path
         d="m 510.02734,-32.265625 h 33.41797 v 51.567383 h 20.97266 V 32.265625 H 505.5332 V 19.301758 h 21.03028 v -38.603516 h -16.53614 z m 16.53614,-31.401367 h 16.88183 v 19.705078 h -16.88183 z"
         style="fill:#72d5c8"
         id="path66" />
      <path
         d="M 630.04395,-9.6220703 V 32.265625 H 613.27734 V -7.0292969 q 0,-7.0292971 -2.0166,-10.0253901 -1.95898,-3.053711 -6.45312,-3.053711 -4.55176,0 -7.20215,4.09082 -2.59277,4.09082 -2.59277,11.3505858 V 32.265625 h -16.76661 v -64.53125 h 16.76661 v 9.679688 q 1.78613,-5.358399 6.10742,-8.296875 4.32129,-2.938477 10.42871,-2.938477 9.16113,0 13.82812,6.107422 4.667,6.049805 4.667,18.0917967 z"
         style="fill:#72d5c8"
         id="path68" />
      <path
         d="m 679.13379,-50.587891 v 18.322266 h 22.06738 v 12.963867 h -22.06738 v 30.53711 q 0,4.321289 2.07422,6.222656 2.13183,1.84375 7.02929,1.84375 h 12.96387 v 12.963867 h -14.17383 q -14.51953,0 -19.64746,-4.609375 -5.12793,-4.666992 -5.12793,-17.227539 v -29.730469 h -16.47851 v -12.963867 h 16.47851 v -18.322266 z"
         style="fill:#72d5c8"
         id="path70" />
      <path
         d="m 773.91406,29.09668 q -5.87695,2.419922 -11.98437,3.629882 -6.10742,1.209961 -12.90625,1.209961 -16.19043,0 -24.77539,-8.642578 -8.52735,-8.700195 -8.52735,-25.00585906 0,-15.78710894 8.23926,-24.94824194 8.23926,-9.161133 22.4707,-9.161133 14.34668,0 22.24024,8.527344 7.95117,8.469726 7.95117,23.9111325 v 6.8564453 h -43.73145 q 0.0576,7.6054692 4.49415,11.3505862 4.43652,3.745117 13.25195,3.745117 5.81933,0 11.46582,-1.670899 5.64648,-1.670898 11.81152,-5.300781 z M 759.625,-7.2021484 q -0.11523,-6.6835936 -3.45703,-10.0830076 -3.28418,-3.457031 -9.73731,-3.457031 -5.81933,0 -9.27636,3.572265 -3.45703,3.514649 -4.09082,10.0253908 z"
         style="fill:#72d5c8"
         id="path72" />
      <path
         d="m 847.7793,-14.461914 q -2.76563,-2.535156 -6.51075,-3.802734 -3.6875,-1.267579 -8.12402,-1.267579 -5.3584,0 -9.3916,1.901368 -3.97559,1.84375 -6.16504,5.416015 -1.38281,2.189453 -1.95898,5.3007815 -0.51856,3.1113281 -0.51856,9.4492188 V 32.265625 h -16.88183 v -64.53125 h 16.88183 v 10.025391 q 2.47754,-5.53125 7.60547,-8.527344 5.12793,-3.053711 11.98438,-3.053711 3.45703,0 6.74121,0.864258 3.34179,0.80664 6.33789,2.419922 z"
         style="fill:#72d5c8"
         id="path74" />
      <path
         d="m 878.37402,11.120117 h 19.18653 v 21.145508 h -19.18653 z"
         style="fill:#72d5c8"
         id="path76" />
    </g>
  </g>
</svg>
